# xmcd
#
# Track frame offsets: 
#        150
#        18114
#        34208
#        49505
#        74291
#        88615
#        105966
#        125767
#        139917
#        158215
#        179133
#        198324
#
# Disc length: 2899 seconds
#
# Revision: 0
# Processed by: cddbd v1.5.2PL0 Copyright (c) Steve Scherf et al.
# Submitted via: ExactAudioCopy v0.95a5
#
DISCID=a20b510c
DTITLE=Jason Mraz - The World As I See It
DYEAR=2011
DGENRE=Pop
TTITLE0=The World As I See It
TTITLE1=Try Try Try
TTITLE2=Kickin With You
TTITLE3=What Mama Say
TTITLE4=Lucky Jason Mraz and Ximena Sarinana
TTITLE5=Burning Bridger (Unreleased Demo)
TTITLE6=Freedom Song
TTITLE7=Wordplay (Lilywhite Mix)
TTITLE8=Coyotes
TTITLE9=San Disco Reggaefornid
TTITLE10=Up
TTITLE11=I'm Yours (Original Demo)
EXTD=
EXTT0=
EXTT1=
EXTT2=
EXTT3=
EXTT4=
EXTT5=
EXTT6=
EXTT7=
EXTT8=
EXTT9=
EXTT10=
EXTT11=
PLAYORDER=
